<svg aria-hidden="true" style="position: absolute; width: 0; height: 0; overflow: hidden;" version="1.1" xmlns="http://www.w3.org/2000/svg" xmlns:xlink="http://www.w3.org/1999/xlink">
<defs>
<symbol id="icon-trash-2" viewBox="0 0 24 24">
<path d="M18 7v13c0 0.276-0.111 0.525-0.293 0.707s-0.431 0.293-0.707 0.293h-10c-0.276 0-0.525-0.111-0.707-0.293s-0.293-0.431-0.293-0.707v-13zM17 5v-1c0-0.828-0.337-1.58-0.879-2.121s-1.293-0.879-2.121-0.879h-4c-0.828 0-1.58 0.337-2.121 0.879s-0.879 1.293-0.879 2.121v1h-4c-0.552 0-1 0.448-1 1s0.448 1 1 1h1v13c0 0.828 0.337 1.58 0.879 2.121s1.293 0.879 2.121 0.879h10c0.828 0 1.58-0.337 2.121-0.879s0.879-1.293 0.879-2.121v-13h1c0.552 0 1-0.448 1-1s-0.448-1-1-1zM9 5v-1c0-0.276 0.111-0.525 0.293-0.707s0.431-0.293 0.707-0.293h4c0.276 0 0.525 0.111 0.707 0.293s0.293 0.431 0.293 0.707v1zM9 11v6c0 0.552 0.448 1 1 1s1-0.448 1-1v-6c0-0.552-0.448-1-1-1s-1 0.448-1 1zM13 11v6c0 0.552 0.448 1 1 1s1-0.448 1-1v-6c0-0.552-0.448-1-1-1s-1 0.448-1 1z"></path>
</symbol>
<symbol id="icon-magnifier" viewBox="0 0 32 32">
<path d="M31.214 27.56l-6.173-6.175c1.477-2.154 2.359-4.816 2.359-7.685 0-7.566-6.133-13.699-13.699-13.699s-13.699 6.133-13.699 13.699c0 7.566 6.133 13.699 13.699 13.699 2.869 0 5.531-0.882 7.732-2.389l-0.047 0.030 6.175 6.173c0.47 0.485 1.128 0.786 1.856 0.786 1.428 0 2.585-1.157 2.585-2.585 0-0.728-0.301-1.386-0.786-1.856l-0.001-0.001zM13.695 22.836c-0.037 0.001-0.080 0.001-0.124 0.001-5.052 0-9.147-4.095-9.147-9.147s4.095-9.147 9.147-9.147c0.041 0 0.083 0 0.124 0.001l-0.006-0c5.001 0.066 9.029 4.136 9.029 9.146 0 5.008-4.025 9.076-9.016 9.146l-0.007 0z"></path>
</symbol>
<symbol id="icon-star" viewBox="0 0 32 32">
<path d="M7.458 20.308l-6.943-6.769c-0.882-0.857-0.604-1.709 0.613-1.883l9.591-1.395 4.294-8.691c0.543-1.105 1.434-1.105 1.984 0l4.281 8.691 9.591 1.395c1.221 0.177 1.495 1.025 0.61 1.883l-6.934 6.769 1.639 9.552c0.207 1.214-0.513 1.739-1.602 1.166l-8.581-4.51-8.581 4.51c-1.090 0.574-1.81 0.049-1.602-1.166l1.639-9.552z"></path>
</symbol>
<symbol id="icon-home" viewBox="0 0 32 32">
<path d="M30.601 16.674c-0.046-0.948-0.088-1.645-0.138-2.34l0.019 0.332c-0.122-1.572-0.823-2.958-1.886-3.968l-2.636-2.507-7.614-7.254c-0.61-0.58-1.437-0.938-2.348-0.938s-1.738 0.357-2.349 0.939l-10.242 9.758c-1.070 1.009-1.773 2.398-1.892 3.95l-0.002 0.020c-0.062 0.757-0.122 1.798-0.162 2.845l-0.004 0.155c-0.040 1.062-0.064 2.308-0.064 3.561 0 0.024 0 0.050 0 0.074v-0.004c0 2.484 0.091 4.828 0.252 6.975 0.116 1.653 1.368 2.982 2.974 3.218l0.019 0.002c0.614 0.080 1.262 0.16 1.942 0.23 0.898 0.098 2.137 0.196 3.384 0.264l0.2 0.009c0.031 0.002 0.068 0.004 0.104 0.004 0.947 0 1.714-0.768 1.714-1.714 0-0 0-0 0-0v0-8.428c0-1.778 1.442-3.22 3.22-3.22v0h1.812c1.778 0 3.22 1.442 3.22 3.22v0 8.424c0.001 0.948 0.77 1.715 1.717 1.715 0.036 0 0.072-0.001 0.106-0.004l-0.005 0c1.448-0.078 2.688-0.175 3.918-0.301l-0.334 0.028c0.966-0.098 1.631-0.18 2.293-0.272l-0.352 0.040c1.625-0.238 2.876-1.566 2.994-3.207l0-0.011c0.162-2.146 0.252-4.486 0.252-6.976-0.010-1.658-0.052-3.273-0.128-4.88l0.010 0.26z"></path>
</symbol>
<symbol id="icon-minus" viewBox="0 0 32 32">
<path d="M2.572 18.685h26.857c1.434-0.064 2.572-1.241 2.572-2.685s-1.138-2.621-2.566-2.684l-0.006-0h-26.857c-1.434 0.064-2.572 1.241-2.572 2.685s1.138 2.621 2.566 2.684l0.006 0z"></path>
</symbol>
<symbol id="icon-shop-cart" viewBox="0 0 37 32">
<path d="M34.105 4.486h-26l-0.544-3.164c-0.137-0.756-0.79-1.322-1.576-1.322-0 0-0.001 0-0.001 0h-4.319c-0.884 0-1.601 0.717-1.601 1.601s0.717 1.601 1.601 1.601h2.959l1.030 5.857 1.564 11.375c0.175 1.373 1.335 2.423 2.741 2.425h22.398c1.406-0.001 2.566-1.052 2.739-2.411l0.001-0.014 1.746-12.794c0.017-0.117 0.028-0.252 0.028-0.389 0-1.527-1.238-2.764-2.764-2.764-0.001 0-0.003 0-0.004 0h0zM13.538 25.209c-1.875 0-3.396 1.52-3.396 3.396s1.52 3.396 3.396 3.396c1.875 0 3.396-1.52 3.396-3.396 0-0.005 0-0.010-0-0.014v0.001c-0.001-1.868-1.516-3.382-3.385-3.382-0.004 0-0.008 0-0.012 0h0.001zM28.357 25.209c-1.859 0.021-3.359 1.533-3.359 3.396 0 1.875 1.52 3.396 3.396 3.396 0.029 0 0.059-0 0.088-0.001l-0.004 0c1.839-0.047 3.312-1.549 3.312-3.395 0-1.875-1.52-3.396-3.396-3.396-0.013 0-0.026 0-0.039 0l0.002-0z"></path>
</symbol>
<symbol id="icon-heart" viewBox="0 0 37 32">
<path d="M34.358 3.851c-4.044-4.865-11.307-5.12-15.689-0.767-4.38-4.353-11.644-4.097-15.684 0.767-3.525 4.243-2.892 10.56 1.021 14.448l13.167 13.084c0.384 0.381 0.914 0.617 1.498 0.617s1.114-0.236 1.498-0.617l-0 0 13.167-13.084c3.915-3.888 4.549-10.205 1.024-14.448z"></path>
</symbol>
<symbol id="icon-bell" viewBox="0 0 27 32">
<path d="M24.081 12.969c-0-1.141-0.194-2.237-0.549-3.258l0.021 0.069c-1.255-3.487-4.212-6.076-7.843-6.786l-0.066-0.011s0.114-0.265-0.135-0.937c-0.436-1.236-1.168-2.047-1.99-2.047-0.821 0-1.558 0.801-1.992 2.031-0.245 0.693-0.135 0.953-0.135 0.953v0.025c-3.692 0.711-6.648 3.291-7.88 6.696l-0.023 0.073c-0.338 0.951-0.534 2.049-0.534 3.192v0c0 3.86-0.592 7.431-1.668 10.050-0.093 0.216-0.147 0.467-0.147 0.731 0 0.603 0.281 1.14 0.719 1.487l0.004 0.003c0.213 0.171 0.459 0.295 0.724 0.369 1.876 0.537 3.794 0.919 5.732 1.145l0.608 0.070c3.006 0.308 6.036 0.308 9.044 0h0.14l0.603-0.070c2.168-0.241 4.123-0.634 6.013-1.177l-0.253 0.062c0.81-0.234 1.401-0.949 1.446-1.808l0-0.005c0.001-0.024 0.002-0.052 0.002-0.080 0-0.261-0.052-0.509-0.147-0.735l0.005 0.013c-1.107-2.624-1.699-6.195-1.699-10.055zM18.374 27.862l-0.329 0.036c-1.502 0.185-3.011 0.279-4.522 0.283-0.026 0-0.057 0-0.088 0-1.567 0-3.109-0.103-4.621-0.302l0.178 0.019-0.329-0.036c-0.009-0.001-0.019-0.002-0.029-0.002-0.104 0-0.188 0.084-0.188 0.188 0 0.019 0.003 0.038 0.008 0.055l-0-0.001c0.614 2.262 2.648 3.898 5.065 3.898s4.451-1.636 5.057-3.861l0.009-0.037c0.005-0.016 0.007-0.034 0.007-0.052 0-0.105-0.085-0.19-0.19-0.19-0.010 0-0.019 0.001-0.028 0.002l0.001-0z"></path>
</symbol>
<symbol id="icon-plus" viewBox="0 0 32 32">
<path d="M2.6 18.678h26.8c1.446-0.045 2.6-1.228 2.6-2.68s-1.155-2.635-2.596-2.68l-0.004-0h-26.8c-1.446 0.045-2.6 1.228-2.6 2.68s1.155 2.635 2.596 2.68l0.004 0z"></path>
<path d="M18.68 29.4v-26.8c-0.063-1.431-1.239-2.566-2.679-2.566s-2.616 1.136-2.679 2.561l-0 0.006v26.8c0.063 1.431 1.239 2.566 2.679 2.566s2.616-1.136 2.679-2.561l0-0.006z"></path>
</symbol>
</defs>
</svg>
